<?xml version="1.0" encoding="utf-8"?>
<!-- Generator: Adobe Illustrator 16.0.0, SVG Export Plug-In . SVG Version: 6.00 Build 0)  -->
<!DOCTYPE svg PUBLIC "-//W3C//DTD SVG 1.1//EN" "http://www.w3.org/Graphics/SVG/1.1/DTD/svg11.dtd">
<svg version="1.1" id="Layer_1" xmlns="http://www.w3.org/2000/svg" xmlns:xlink="http://www.w3.org/1999/xlink" x="0px" y="0px"
	 width="89.007px" height="93.228px" viewBox="0 0 89.007 93.228" enable-background="new 0 0 89.007 93.228" xml:space="preserve">
<path opacity="0.15" fill="#FFC31F" d="M1.418,27.179c0-11.854,9.61-21.465,21.465-21.465h42.305
	c11.854,0,21.466,9.611,21.466,21.465v42.05c0,11.854-9.611,21.465-21.466,21.465H22.883c-11.854,0-21.465-9.611-21.465-21.465
	V27.179z"/>
<path fill="#FEBC11" d="M38.761,41.581c-1.567,0-2.838-1.269-2.838-2.836c0-1.566,1.271-2.836,2.838-2.836
	c1.565,0,2.837,1.27,2.837,2.836C41.598,40.312,40.327,41.581,38.761,41.581z M52.323,39.323H52.31
	C52.323,39.314,52.329,39.312,52.323,39.323z M69.829,70.46c-0.021-0.726-0.655-1.286-1.381-1.286h-3.272l3.813-3.813
	c0.341-0.339,0.388-0.896,0.068-1.253c-0.341-0.377-0.928-0.391-1.284-0.034l-4.939,4.939c-3.43-0.571-6.487-2.654-8.253-5.715
	L45.96,48.373c-1.056-1.829-0.853-4.166,0.6-5.699c0.674-0.71,1.568-1.221,2.621-1.401c0.752-0.129,2.964-0.176,3.187-0.181
	l4.944,4.944c0.173,0.173,0.401,0.259,0.626,0.259c0.213,0,0.428-0.076,0.595-0.228c0.378-0.344,0.356-0.954-0.005-1.315
	l-3.658-3.66h2.979c0.464,0,0.875-0.339,0.92-0.798c0.05-0.528-0.364-0.971-0.881-0.971h-3.126l3.766-3.765
	c0.338-0.339,0.388-0.896,0.068-1.252c-0.344-0.379-0.928-0.391-1.284-0.034l-5.052,5.051c0,0-2.316-0.251-3.079-0.386
	c-2.738-0.481-4.604-3.698-3.727-6.452c0.451-1.414,2.708-5.282,2.708-5.282l4.797-1.106c0.451-0.104,0.776-0.525,0.716-0.984
	c-0.068-0.525-0.571-0.863-1.074-0.748l-4.35,1.002l-1.002-4.348c-0.123-0.536-0.711-0.844-1.239-0.602
	c-0.383,0.176-0.574,0.613-0.479,1.023l1.117,4.847c0,0-1.946,3.569-3.216,5.031c-1.96,2.256-5.6,2.347-7.451,0
	c-0.492-0.625-1.827-2.601-1.827-2.601l1.377-7.244c0.091-0.479-0.224-0.942-0.704-1.034c-0.481-0.09-0.943,0.224-1.034,0.704
	l-0.994,5.228l-2.417-4.186c-0.252-0.436-0.819-0.578-1.249-0.299c-0.401,0.261-0.498,0.811-0.258,1.227l2.441,4.228l-5.183-0.985
	c-0.506-0.097-0.997,0.261-1.046,0.789c-0.043,0.461,0.301,0.87,0.754,0.956l6.642,1.263c0,0,1.153,2.32,1.476,3.121
	c1.15,2.857-0.932,6.838-5.625,6.838c-1.943,0-5.553,0-5.553,0l-3.733-3.734c-0.388-0.388-1.048-0.339-1.368,0.144
	c-0.233,0.352-0.165,0.827,0.134,1.124l3.138,3.138l-3.122,3.123c-0.358,0.361-0.377,0.972,0,1.314
	c0.168,0.152,0.381,0.229,0.594,0.229c0.226,0,0.453-0.084,0.625-0.257l3.311-3.312c0,0,5.011,0,6.984,0
	c3.315,0,5.601,3.886,4.616,6.634c-0.622,1.736-3.441,6.523-3.441,6.523l-4.806,1.051c-0.451,0.098-0.781,0.517-0.727,0.976
	c0.063,0.523,0.56,0.869,1.067,0.76l4.359-0.951l0.951,4.359c0.09,0.414,0.457,0.694,0.864,0.694c0.063,0,0.126-0.005,0.189-0.018
	c0.477-0.105,0.779-0.577,0.675-1.054l-1.067-4.89c0,0,2.73-4.889,3.954-6.286c0.063-0.069,0.13-0.141,0.197-0.209
	c2.195-2.229,5.949-1.637,7.514,1.071l8.587,14.873c2.22,3.846,6.101,6.427,10.429,7.054l5.063,5.062
	c0.173,0.173,0.401,0.26,0.626,0.26c0.213,0,0.428-0.076,0.595-0.23c0.378-0.344,0.356-0.954-0.002-1.315l-3.629-3.626h3.142
	C69.25,71.829,69.852,71.212,69.829,70.46z"/>
</svg>
