<?xml version="1.0" encoding="utf-8"?>
<!-- Generator: Adobe Illustrator 16.0.0, SVG Export Plug-In . SVG Version: 6.00 Build 0)  -->
<!DOCTYPE svg PUBLIC "-//W3C//DTD SVG 1.1//EN" "http://www.w3.org/Graphics/SVG/1.1/DTD/svg11.dtd">
<svg version="1.1" id="Layer_1" xmlns="http://www.w3.org/2000/svg" xmlns:xlink="http://www.w3.org/1999/xlink" x="0px" y="0px"
	 width="89.007px" height="93.228px" viewBox="0 0 89.007 93.228" enable-background="new 0 0 89.007 93.228" xml:space="preserve">
<path opacity="0.15" fill="#E9246B" d="M1.603,26.602c0-12.001,9.73-21.732,21.732-21.732h42.831
	c12.003,0,21.732,9.731,21.732,21.732v42.575c0,12.002-9.729,21.732-21.732,21.732H23.335c-12.002,0-21.732-9.73-21.732-21.732
	V26.602z"/>
<path fill="#E9246B" d="M44.389,65.857L32.241,53.708h-5.666l15.303,15.303c0.7,0.7,1.635,1.051,2.511,1.051
	c0.935,0,1.869-0.351,2.512-1.051l15.302-15.303h-5.665L44.389,65.857z"/>
<path fill="#E9246B" d="M63.487,46.232H51.631c-0.7,0-1.343,0.352-1.752,0.994l-1.928,3.212l-5.549-9.345
	c-0.7-1.227-2.745-1.227-3.445,0l-3.037,5.139H25.349c-1.752-3.095-1.752-6.949,0.175-9.87c1.635-2.453,4.146-4.03,7.066-4.322
	c0.292,0,0.643-0.058,0.994-0.058c2.511,0,4.905,0.992,6.717,2.803l2.628,2.629c0.408,0.409,0.935,0.583,1.401,0.583
	c0.526,0,1.051-0.175,1.402-0.583l2.452-2.454c3.329-3.329,8.411-3.971,12.149-1.46c2.511,1.636,4.029,4.148,4.322,7.067
	C64.89,42.611,64.422,44.54,63.487,46.232z M70.146,46.232h-2.22c0.702-1.927,0.994-3.971,0.761-6.073
	c-0.409-4.088-2.629-7.709-6.075-9.987c-5.313-3.504-12.557-2.687-17.171,1.986l-1.052,1.051l-1.227-1.226
	c-2.92-2.863-6.892-4.323-10.922-3.915c-4.088,0.41-7.709,2.629-10.046,6.075c-2.395,3.621-2.745,8.118-1.227,12.089h-2.336
	c-1.109,0-1.985,0.877-1.985,1.987c0,1.109,0.876,1.985,1.985,1.985h18.457c0.701,0,1.344-0.352,1.752-0.993l1.928-3.213
	l5.549,9.345c0.351,0.585,0.993,0.994,1.752,0.994c0.7,0,1.344-0.351,1.752-0.994l3.037-5.139h17.288
	c1.11,0,1.987-0.876,1.987-1.985C72.133,47.167,71.256,46.232,70.146,46.232z"/>
</svg>
