<?xml version="1.0" encoding="utf-8"?>
<!-- Generator: Adobe Illustrator 16.0.0, SVG Export Plug-In . SVG Version: 6.00 Build 0)  -->
<!DOCTYPE svg PUBLIC "-//W3C//DTD SVG 1.1//EN" "http://www.w3.org/Graphics/SVG/1.1/DTD/svg11.dtd">
<svg version="1.1" id="Layer_1" xmlns="http://www.w3.org/2000/svg" xmlns:xlink="http://www.w3.org/1999/xlink" x="0px" y="0px"
	 width="89.007px" height="93.228px" viewBox="0 0 89.007 93.228" enable-background="new 0 0 89.007 93.228" xml:space="preserve">
<path fill="#EFF1F9" d="M1.418,25.841C1.418,13.725,11.242,3.9,23.359,3.9H66.6c12.119,0,21.941,9.824,21.941,21.941v42.983
	c0,12.116-9.822,21.94-21.941,21.94H23.359c-12.117,0-21.941-9.824-21.941-21.94V25.841z"/>
<path fill="#5363AD" d="M72.136,28.545c-13.794-0.926-17.661-8.085-17.854-8.455c-0.582-1.111-1.741-1.852-3.094-1.852
	c-1.288,0-2.515,0.741-3.093,1.852c-0.129,0.308-3.996,7.529-17.789,8.455c-0.967,0.062-1.741,0.864-1.741,1.789v5.986h3.803V32
	c12.633-1.357,17.659-7.775,18.884-9.75c1.224,1.974,6.251,8.454,18.885,9.75v15.737c0,12.219-14.953,21.968-18.885,24.312
	c-0.903-0.493-2.319-1.42-3.996-2.59l-2.707,2.59c3.093,2.223,5.479,3.519,5.8,3.704C50.608,75.938,50.932,76,51.253,76
	s0.646-0.062,0.967-0.246c0.902-0.496,21.722-11.911,21.722-28.016V30.334C73.875,29.409,73.103,28.607,72.136,28.545z"/>
<path fill="#5363AD" d="M30.436,63.042c-3.673,0-6.638-2.839-6.638-6.358c0-3.517,2.965-6.355,6.638-6.355
	c3.675,0,6.64,2.839,6.64,6.355C37.076,60.203,34.11,63.042,30.436,63.042z M44.81,64.584c-0.71-0.681-1.87-0.681-2.58,0
	l-0.514,0.493l-2.901-2.778c0.838-1.111,1.418-2.469,1.675-3.886h4.061v0.678c0,0.988,0.838,1.728,1.805,1.728
	s1.806-0.801,1.806-1.728v-4.875c0-0.988-0.839-1.728-1.806-1.728s-1.805,0.801-1.805,1.728v0.678H40.49
	c-0.257-1.419-0.837-2.716-1.675-3.886l2.901-2.778l0.514,0.493c0.322,0.308,0.839,0.495,1.289,0.495
	c0.452,0,0.902-0.188,1.291-0.495c0.707-0.678,0.707-1.789,0-2.467l-3.61-3.458c-0.71-0.677-1.869-0.677-2.577,0
	c-0.71,0.681-0.71,1.792,0,2.47l0.515,0.493l-2.9,2.777c-1.16-0.801-2.578-1.358-4.06-1.604v-3.887h0.708
	c1.031,0,1.805-0.803,1.805-1.729c0-0.986-0.838-1.728-1.805-1.728h-5.092c-1.031,0-1.805,0.803-1.805,1.728
	c0,0.988,0.838,1.729,1.805,1.729h0.708v3.887c-1.481,0.246-2.835,0.804-4.061,1.604l-2.707-2.654l0.516-0.493
	c0.708-0.678,0.708-1.789,0-2.469c-0.708-0.678-1.869-0.678-2.578,0l-3.609,3.457c-0.709,0.678-0.709,1.789,0,2.467
	c0.322,0.311,0.838,0.496,1.289,0.496c0.451,0,0.902-0.186,1.289-0.496l0.516-0.492l2.9,2.777c-0.838,1.111-1.418,2.467-1.676,3.886
	h-4.125v-0.678c0-0.988-0.837-1.728-1.804-1.728c-0.967,0-1.805,0.678-1.805,1.666v4.875c0,0.988,0.837,1.728,1.805,1.728
	c0.967,0,1.804-0.801,1.804-1.728v-0.678h4.061c0.258,1.417,0.838,2.713,1.677,3.887l-2.901,2.777l-0.516-0.493
	c-0.709-0.681-1.869-0.681-2.579,0c-0.709,0.678-0.709,1.789,0,2.467l3.61,3.455c0.322,0.311,0.838,0.495,1.289,0.495
	c0.451,0,0.902-0.185,1.29-0.495c0.708-0.678,0.708-1.789,0-2.467l-0.516-0.495l2.9-2.775c1.16,0.801,2.578,1.358,4.061,1.604v3.887
	h-0.71c-1.031,0-1.804,0.803-1.804,1.728c0,0.927,0.837,1.728,1.804,1.728h5.092c1.031,0,1.805-0.801,1.805-1.728
	c0-0.925-0.838-1.728-1.805-1.728h-0.708v-3.887c1.482-0.246,2.836-0.804,4.061-1.604l2.9,2.775l-0.516,0.495
	c-0.71,0.678-0.71,1.789,0,2.467c0.321,0.311,0.837,0.495,1.288,0.495s0.903-0.185,1.289-0.495l3.61-3.455
	C45.517,66.374,45.517,65.262,44.81,64.584z"/>
</svg>
