<?xml version="1.0" encoding="utf-8"?>
<!-- Generator: Adobe Illustrator 16.0.0, SVG Export Plug-In . SVG Version: 6.00 Build 0)  -->
<!DOCTYPE svg PUBLIC "-//W3C//DTD SVG 1.1//EN" "http://www.w3.org/Graphics/SVG/1.1/DTD/svg11.dtd">
<svg version="1.1" id="Layer_1" xmlns="http://www.w3.org/2000/svg" xmlns:xlink="http://www.w3.org/1999/xlink" x="0px" y="0px"
	 width="89.007px" height="93.228px" viewBox="0 0 89.007 93.228" enable-background="new 0 0 89.007 93.228" xml:space="preserve">
<path fill="#E8F5F4" d="M0.98,25.432c0-11.994,9.724-21.718,21.718-21.718H65.5c11.996,0,21.717,9.724,21.717,21.718v42.544
	c0,11.994-9.721,21.718-21.717,21.718H22.698c-11.994,0-21.718-9.724-21.718-21.718V25.432z"/>
<defs>
	<filter id="Adobe_OpacityMaskFilter" filterUnits="userSpaceOnUse" x="-278.91" y="-449.816" width="414" height="896">
		<feColorMatrix  type="matrix" values="1 0 0 0 0  0 1 0 0 0  0 0 1 0 0  0 0 0 1 0"/>
	</filter>
</defs>
<mask maskUnits="userSpaceOnUse" x="-278.91" y="-449.816" width="414" height="896" id="SVGID_1_">
	<g filter="url(#Adobe_OpacityMaskFilter)">
		<rect x="12.089" y="9.183" fill="#010101" width="43" height="43"/>
	</g>
</mask>
<g mask="url(#SVGID_1_)">
	<g>
		<defs>
			<rect id="SVGID_2_" x="-278.91" y="-449.816" width="414" height="896"/>
		</defs>
		<clipPath id="SVGID_3_">
			<use xlink:href="#SVGID_2_"  overflow="visible"/>
		</clipPath>
	</g>
</g>
<path fill="#05797A" d="M45.474,19.275c0.525-2.105,3.68-1.228,3.155,0.875c-0.703,2.28-1.228,4.732-0.525,6.659
	c2.452-2.802,4.907-4.205,8.237-3.68c11.041,1.402,17.701,16.302,12.443,26.466c-7.187,14.374-31.372,25.065-41.539,15.249
	c-3.857-3.68-3.857,2.979-3.505,5.26c0.35,2.103-2.98,2.627-3.333,0.524c-1.225-8.939,4.032-12.969,9.115-8.062
	c8.414,7.887,29.973-1.753,36.282-14.374c4.382-8.762-1.228-20.681-9.989-21.909c-3.683-0.525-5.435,3.857-7.187,4.557
	c-3.155,1.402-4.208-3.68-4.208-6.484C44.421,22.955,44.772,21.202,45.474,19.275z M31.978,54.152c3.505,0,3.505,5.436,0,5.436
	S28.473,54.152,31.978,54.152z M40.04,48.545c3.857,0,3.857,6.135,0,6.135C36.01,54.68,36.01,48.545,40.04,48.545z M51.609,52.75
	c3.854,0,3.854,6.135,0,6.135C47.577,58.884,47.577,52.75,51.609,52.75z M58.093,42.058c4.558,0,4.558,7.362,0,7.362
	C53.361,49.42,53.361,42.058,58.093,42.058z M15.501,66.949c0.353,2.277-2.979,2.628-3.155,0.351
	c-0.7-5.082,1.578-8.765,6.31-11.217c0.353-6.135,5.96-8.939,11.569-11.569c5.96-2.805,11.744-5.785,8.063-13.497
	c-2.277-4.558-1.928-8.939,1.577-12.794c1.577-1.577,4.032,0.7,2.455,2.277c-2.63,2.805-2.806,5.61-1.053,9.114
	c5.082,10.692-2.103,14.374-9.64,17.879c-5.084,2.455-9.817,4.383-9.639,10.691C17.781,60.112,14.976,62.04,15.501,66.949z"/>
</svg>
