<?xml version="1.0" encoding="utf-8"?>
<!-- Generator: Adobe Illustrator 16.0.0, SVG Export Plug-In . SVG Version: 6.00 Build 0)  -->
<!DOCTYPE svg PUBLIC "-//W3C//DTD SVG 1.1//EN" "http://www.w3.org/Graphics/SVG/1.1/DTD/svg11.dtd">
<svg version="1.1" id="Layer_1" xmlns="http://www.w3.org/2000/svg" xmlns:xlink="http://www.w3.org/1999/xlink" x="0px" y="0px"
	 width="89.007px" height="93.228px" viewBox="0 0 89.007 93.228" enable-background="new 0 0 89.007 93.228" xml:space="preserve">
<defs>
	<filter id="Adobe_OpacityMaskFilter" filterUnits="userSpaceOnUse" x="-278.91" y="-449.816" width="414" height="896">
		<feColorMatrix  type="matrix" values="1 0 0 0 0  0 1 0 0 0  0 0 1 0 0  0 0 0 1 0"/>
	</filter>
</defs>
<mask maskUnits="userSpaceOnUse" x="-278.91" y="-449.816" width="414" height="896" id="SVGID_1_">
	<g filter="url(#Adobe_OpacityMaskFilter)">
		<rect x="12.089" y="9.183" fill="#010101" width="43" height="43"/>
	</g>
</mask>
<g mask="url(#SVGID_1_)">
	<g>
		<defs>
			<rect id="SVGID_2_" x="-278.91" y="-449.816" width="414" height="896"/>
		</defs>
		<clipPath id="SVGID_3_">
			<use xlink:href="#SVGID_2_"  overflow="visible"/>
		</clipPath>
	</g>
</g>
<path fill="#F8EDF5" d="M1.336,25.618C1.336,13.625,11.06,3.9,23.053,3.9h42.804c11.993,0,21.718,9.724,21.718,21.717v42.545
	c0,11.994-9.725,21.718-21.718,21.718H23.053c-11.993,0-21.717-9.724-21.717-21.718V25.618z"/>
<path fill="#C35BA3" d="M72.338,22.557c-0.705,0.594-1.365,1.226-2.004,1.876l-2.37-2.813c0.748-0.521,1.484-1.064,2.188-1.658
	l0.498-0.419l2.188,2.595L72.338,22.557z M62.946,37.401l-0.827,3.141c-1.508,5.727-4.909,10.889-9.578,14.533
	c-4.104,3.208-9.014,5.162-14.198,5.652l-3.701,0.35c-4.417,0.419-8.617,1.819-12.354,4.094l-0.718-0.852l3.21-2.704l2.338-1.084
	c2.77-1.283,5.722-2.021,8.771-2.195c5.571-0.313,10.989-2.468,15.258-6.063l0.284-0.239c4.268-3.597,7.312-8.57,8.567-14.008
	c0.689-2.975,1.917-5.755,3.653-8.27l1.467-2.122l3.21-2.704l0.731,0.868C66.172,29.135,64.086,33.075,62.946,37.401z
	 M18.638,67.793l-0.589,0.495l-2.186-2.595l0.588-0.496c0.673-0.567,1.309-1.169,1.923-1.79l2.353,2.795
	C20.014,66.704,19.313,67.226,18.638,67.793z M37.788,53.549l2.021-0.732c2.96-1.07,5.68-2.641,8.11-4.689
	c2.407-2.028,4.417-4.44,5.974-7.174l1.065-1.869c1.442-2.532,3.176-4.851,5.167-6.948c-0.843,1.739-1.493,3.568-1.933,5.472
	c-1.169,5.048-3.993,9.669-7.956,13.006l-0.283,0.239c-3.964,3.337-8.995,5.339-14.17,5.631c-1.95,0.111-3.861,0.439-5.718,0.978
	C32.469,55.853,35.049,54.538,37.788,53.549z M50.913,34.284l-2.022,0.731c-2.959,1.071-5.679,2.641-8.109,4.689
	c-2.408,2.028-4.418,4.441-5.974,7.174l-1.064,1.869c-1.442,2.532-3.177,4.852-5.168,6.946c0.843-1.739,1.494-3.566,1.934-5.47
	c1.168-5.047,3.993-9.668,7.956-13.006l0.283-0.239c3.963-3.337,8.994-5.34,14.17-5.631c1.948-0.111,3.859-0.441,5.718-0.977
	C56.234,31.978,53.652,33.292,50.913,34.284z M34.612,50.906c0.254-0.408,0.505-0.822,0.744-1.24l1.064-1.867
	c1.447-2.545,3.317-4.787,5.582-6.696c2.237-1.885,4.767-3.346,7.519-4.342l2.022-0.732c0.454-0.164,0.901-0.339,1.35-0.52
	L34.612,50.906z M54.086,36.927c-0.252,0.408-0.504,0.822-0.742,1.241l-1.063,1.866c-1.447,2.542-3.319,4.788-5.583,6.696
	c-2.237,1.885-4.767,3.346-7.52,4.343l-2.022,0.729c-0.453,0.164-0.901,0.342-1.348,0.521L54.086,36.927z M25.787,50.569
	l0.976-3.587c1.364-5.026,4.125-9.533,7.981-13.032c4.385-3.981,10.048-6.456,15.95-6.971l3.234-0.281
	c4.459-0.39,8.698-1.776,12.473-4.054l0.732,0.869l-3.211,2.703L61.583,27.3c-2.771,1.283-5.724,2.021-8.772,2.194
	c-5.57,0.315-10.988,2.47-15.258,6.065l-0.283,0.239c-4.269,3.598-7.311,8.571-8.568,14.008c-0.688,2.975-1.917,5.756-3.652,8.269
	l-1.466,2.124l-3.21,2.701l-0.717-0.851C22.531,58.75,24.624,54.848,25.787,50.569z"/>
</svg>
